{"title":"Mr Robot S02e03 Legendado 1080p Web-dl X264 AC3-PEISR","uid":15481601,"size":1327928095,"categoryP":"video","categoryS":"hd___movies","magnet":"?xt=urn:btih:2fc4d8ff9c99ba1a14faaedcbff029e24cf7688d&amp;dn=Mr+Robot+S02e03+Legendado+1080p+Web-dl+X264+AC3-PEISR&amp;tr=udp%3A%2F%2Ftracker.leechers-paradise.org%3A6969&amp;tr=udp%3A%2F%2Fzer0day.ch%3A1337&amp;tr=udp%3A%2F%2Fopen.demonii.com%3A1337&amp;tr=udp%3A%2F%2Ftracker.coppersurfer.tk%3A6969&amp;tr=udp%3A%2F%2Fexodus.desync.com%3A6969","seeders":5,"leechers":0,"uploader":"VitorPIRA","files":2,"time":1470260634,"description":"http://extraimago.com/images/2016/08/01/11dc2f87cc6ef2baadb9e60052a77759.jpg\r\n \nhttp://www.imdb.com/title/tt4158110/\r\n\r\nElliot é um jovem programador que trabalha como engenheiro de segurança virtual durante o dia, e como hacker vigilante durante a noite. Elliot se vê numa encruzilhada quando o líder de um misterioso grupo de hacker o recruta para destruir a firma que ele é pago para proteger. \r\n\r\nVideo\r\nID                                       : 1\r\nFormat                                   : AVC\r\nFormat/Info                              : Advanced Video Codec\r\nFormat profile                           :   \r\nFormat settings, CABAC                   : Yes\r\nFormat settings, ReFrames                : 5 frames\r\nCodec ID                                 : V_MPEG4/ISO/AVC\r\nDuration                                 : 1 h 3 min\r\nBit rate                                 : 2 526 kb/s\r\nWidth                                    : 1 920 pixels\r\nHeight                                   : 1 080 pixels\r\nDisplay aspect ratio                     : 16:9\r\nFrame rate mode                          : Constant\r\nFrame rate                               : 23.976 (24000/1001) FPS\r\nColor space                              : YUV\r\nChroma subsampling                       : 4:2:0\r\nBit depth                                : 8 bits\r\nScan type                                : Progressive\r\nBits/(Pixel*Frame)                       : 0.051\r\nStream size                              : 1.11 GiB (90%)\r\nDefault                                  : Yes\r\nForced                                   : No\r\n\r\nAudio\r\nID                                       : 2\r\nFormat                                   : AC-3\r\nFormat/Info                              : Audio Coding 3\r\nMode extension                           : CM (complete main)\r\nFormat settings, Endianness              : Big\r\nCodec ID                                 : A_AC3\r\nDuration                                 : 1 h 3 min\r\nBit rate mode                            : Constant\r\nBit rate                                 : 224 kb/s\r\nChannel(s)                               : 6 channels\r\nChannel positions                        : Front: L C R, Side: L R, LFE\r\nSampling rate                            : 48.0 kHz\r\nFrame rate                               : 31.250 FPS (1536 spf)\r\nCompression mode                         : Lossy\r\nDelay relative to video                  : -5 ms\r\nStream size                              : 101 MiB (8%)\r\nTitle                                    : Inglês 5.1\r\nLanguage                                 : English\r\nDefault                                  : Yes\r\nForced                                   : No\r\n\r\nText\r\nID                                       : 3\r\nFormat                                   : UTF-8\r\nCodec ID                                 : S_TEXT/UTF8\r\nCodec ID/Info                            : UTF-8 Plain Text\r\nTitle                                    : Português\r\nLanguage                                 : Portuguese\r\nDefault                                  : Yes\r\nForced                                   : No\r\n \nhttp://i.imgur.com/3KxvSy3.jpg","torrent":{"xt":"urn:btih:2fc4d8ff9c99ba1a14faaedcbff029e24cf7688d","amp;dn":"Mr+Robot+S02e03+Legendado+1080p+Web-dl+X264+AC3-PEISR","amp;tr":["udp%3A%2F%2Ftracker.leechers-paradise.org%3A6969","udp%3A%2F%2Fzer0day.ch%3A1337","udp%3A%2F%2Fopen.demonii.com%3A1337","udp%3A%2F%2Ftracker.coppersurfer.tk%3A6969","udp%3A%2F%2Fexodus.desync.com%3A6969"],"infoHash":"2fc4d8ff9c99ba1a14faaedcbff029e24cf7688d","infoHashBuffer":{"type":"Buffer","data":[47,196,216,255,156,153,186,26,20,250,174,220,191,240,41,226,76,247,104,141]},"announce":[],"urlList":[]}}